<svg xmlns="http://www.w3.org/2000/svg" width="300" height="100" viewBox="0 0 300 100">
<style>
.f1{animation:s1 30s infinite}
.f2{animation:s2 30s infinite;opacity:0}
@keyframes s1{0%,45%{opacity:1}50%,95%{opacity:0}100%{opacity:1}}
@keyframes s2{0%,45%{opacity:0}50%,95%{opacity:1}100%{opacity:0}}
</style>
<rect x="1" y="1" width="298" height="98" rx="8" fill="none" stroke="rgba(0,0,0,0.15)" stroke-width="1.5"/>
<g class="f1">
  <svg x="10" y="10" width="80" height="80" viewBox="0 0 72 72"><g id="color">
    <rect x="15.0229" y="16.2834" width="41.9541" height="40.9771" fill="#F4AA41" stroke="none"/>
    <polyline fill="#E27022" stroke="none" stroke-linecap="round" stroke-linejoin="round" stroke-miterlimit="10" stroke-width="2" points="16,55.7479 11,55.9479 11,60.9896 61,60.9896 61,53.9479 56,54.1479"/>
    <polyline fill="#E27022" stroke="none" stroke-linecap="round" stroke-linejoin="round" stroke-miterlimit="10" stroke-width="2" points="56,16.2834 61,16.0834 61,11.0417 11,11.0417 11,18.0834 16,17.8834"/>
  </g>
  <g id="hair"/>
  <g id="skin"/>
  <g id="skin-shadow"/>
  <g id="line">
    <polyline fill="none" stroke="#000000" stroke-linecap="round" stroke-linejoin="round" stroke-miterlimit="10" stroke-width="2" points="16,55.7479 11,55.9479 11,60.9896 61,60.9896 61,53.9479 56,54.1479"/>
    <polyline fill="none" stroke="#000000" stroke-linecap="round" stroke-linejoin="round" stroke-miterlimit="10" stroke-width="2" points="56,16.2834 61,16.0834 61,11.0417 11,11.0417 11,18.0834 16,17.8834"/>
    <polyline fill="none" stroke="#000000" stroke-linecap="round" stroke-linejoin="round" stroke-miterlimit="10" stroke-width="2" points="56,16.2834 34.6258,17.1383 16,17.8834"/>
    <line x1="16" x2="56" y1="55.7479" y2="54.1479" fill="none" stroke="#000000" stroke-linecap="round" stroke-linejoin="round" stroke-miterlimit="10" stroke-width="2"/>
    <line x1="16" x2="16" y1="22.0023" y2="50.0603" fill="none" stroke="#000000" stroke-linecap="round" stroke-linejoin="round" stroke-miterlimit="10" stroke-width="2"/>
    <line x1="56" x2="56" y1="22.0023" y2="50.0603" fill="none" stroke="#000000" stroke-linecap="round" stroke-linejoin="round" stroke-miterlimit="10" stroke-width="2"/>
    <line x1="20.8523" x2="31.8614" y1="24.9034" y2="24.9034" fill="none" stroke="#000000" stroke-linecap="round" stroke-linejoin="round" stroke-miterlimit="10" stroke-width="2"/>
    <line x1="20.8523" x2="52.019" y1="30.1515" y2="30.1515" fill="none" stroke="#000000" stroke-linecap="round" stroke-linejoin="round" stroke-miterlimit="10" stroke-width="2"/>
    <line x1="20.8523" x2="52.019" y1="35.3997" y2="35.3997" fill="none" stroke="#000000" stroke-linecap="round" stroke-linejoin="round" stroke-miterlimit="10" stroke-width="2"/>
    <line x1="20.8523" x2="52.019" y1="40.6479" y2="40.6479" fill="none" stroke="#000000" stroke-linecap="round" stroke-linejoin="round" stroke-miterlimit="10" stroke-width="2"/>
    <line x1="20.8523" x2="52.019" y1="45.896" y2="45.896" fill="none" stroke="#000000" stroke-linecap="round" stroke-linejoin="round" stroke-miterlimit="10" stroke-width="2"/>
  </g></svg>
  <svg x="110" y="10" width="80" height="80" viewBox="0 0 72 72"><g id="color">
    <rect x="12" y="12" width="48" height="47.83" fill="#92d3f5"/>
  </g>
  <g id="line" fill="none" stroke="#000" stroke-linecap="round" stroke-linejoin="round">
    <path stroke-miterlimit="10" stroke-width="4.798" d="m30.94 31.68c0.4822-2.349 2.562-4.119 5.055-4.119 1.425 0 2.713 0.5782 3.647 1.511 1.452 1.454 1.32 3.865-0.04318 5.403l-8.762 9.88h10.32" clip-rule="evenodd"/>
    <rect x="12" y="12" width="48" height="48" stroke-width="2"/>
  </g></svg>
  <svg x="210" y="10" width="80" height="80" viewBox="0 0 72 72"><g id="color">
    <circle cx="36" cy="36" r="24" fill="#FCEA2B"/>
    <path fill="#FFA7C0" d="M11.3186,34.66c-0.0843,0.1747-0.2943,0.2481-0.4691,0.1637c-0.0715-0.0345-0.1292-0.0922-0.1637-0.1637 c-0.9703-2.0141-3.3896-2.8602-5.4036-1.8899c-2.0141,0.9703-2.8602,3.3896-1.8899,5.4036 c0.1063,0.2206,0.2323,0.4311,0.3766,0.6289l7.2333,9.2748l7.1911-9.218l0.232-0.3422c1.1619-1.91,0.5554-4.4002-1.3545-5.562 s-4.4002-0.5554-5.562,1.3545C11.4396,34.4233,11.3762,34.5402,11.3186,34.66z"/>
    <path fill="#FFA7C0" d="M48.3186,7.66c-0.0843,0.1747-0.2943,0.2481-0.4691,0.1637C47.778,7.7892,47.7203,7.7315,47.6858,7.66 c-0.9703-2.0141-3.3896-2.8602-5.4036-1.8899s-2.8602,3.3896-1.8899,5.4036c0.1063,0.2206,0.2323,0.4311,0.3766,0.6289 l7.2333,9.2748l7.1911-9.218l0.232-0.3422c1.1619-1.91,0.5554-4.4002-1.3545-5.562c-1.91-1.1619-4.4002-0.5554-5.562,1.3545 C48.4396,7.4233,48.3762,7.5402,48.3186,7.66z"/>
    <path fill="#FFA7C0" d="M56.3186,52.66c-0.0843,0.1747-0.2943,0.2481-0.4691,0.1637c-0.0715-0.0345-0.1292-0.0922-0.1637-0.1637 c-0.9703-2.0141-3.3896-2.8602-5.4036-1.8899c-2.0141,0.9703-2.8602,3.3896-1.8899,5.4036 c0.1063,0.2206,0.2323,0.4311,0.3766,0.6289l7.2333,9.2748l7.1911-9.218l0.232-0.3422c1.1619-1.91,0.5554-4.4002-1.3545-5.562 c-1.91-1.1619-4.4002-0.5554-5.562,1.3545C56.4396,52.4233,56.3762,52.5402,56.3186,52.66z"/>
  </g>
  <g id="line">
    <path fill="none" stroke="#000000" stroke-linecap="round" stroke-linejoin="round" stroke-width="2" d="M45.815,44.8043 c-5.6998,4.6988-13.9302,4.6988-19.63,0"/>
    <path fill="none" stroke="#000000" stroke-linecap="round" stroke-linejoin="round" stroke-width="2" d="M52.04,50.3656 c-2.2368,0.0001-4.0499,1.8135-4.0498,4.0502c0,0.7409,0.2033,1.4677,0.5878,2.1011l0.232,0.3422l7.1911,9.218l7.2333-9.2748 c1.3204-1.8042,0.9281-4.3372-0.8761-5.6576c-1.8042-1.3204-4.3372-0.9281-5.6576,0.8761 c-0.147,0.2008-0.2751,0.4148-0.3828,0.6392c-0.0843,0.1747-0.2943,0.2481-0.4691,0.1637 c-0.0715-0.0345-0.1292-0.0922-0.1637-0.1637C55.0167,51.2541,53.5967,50.3603,52.04,50.3656z"/>
    <path fill="none" stroke="#000000" stroke-linecap="round" stroke-linejoin="round" stroke-width="2" d="M7.04,32.3656 c-2.2368,0.0001-4.0499,1.8135-4.0498,4.0502c0,0.7409,0.2033,1.4677,0.5878,2.1011l0.232,0.3422l7.1911,9.218l7.2333-9.2748 c1.3204-1.8042,0.9281-4.3372-0.8761-5.6576s-4.3372-0.9281-5.6576,0.8761c-0.147,0.2008-0.2751,0.4148-0.3828,0.6391 c-0.0843,0.1747-0.2943,0.2481-0.4691,0.1637c-0.0715-0.0345-0.1292-0.0922-0.1637-0.1637 C10.0167,33.2541,8.5967,32.3603,7.04,32.3656z"/>
    <path fill="none" stroke="#000000" stroke-linecap="round" stroke-linejoin="round" stroke-width="2" d="M44.04,5.3656 c-2.2368,0.0001-4.0499,1.8135-4.0498,4.0502c0,0.7409,0.2033,1.4677,0.5878,2.1011l0.232,0.3422l7.1911,9.218l7.2333-9.2748 c1.3204-1.8042,0.9281-4.3372-0.8761-5.6576c-1.8042-1.3204-4.3372-0.9281-5.6576,0.8761 c-0.147,0.2008-0.2751,0.4148-0.3828,0.6392c-0.0843,0.1747-0.2943,0.2481-0.4691,0.1637 c-0.0715-0.0345-0.1292-0.0922-0.1637-0.1637C47.0167,6.2541,45.5967,5.3603,44.04,5.3656z"/>
    <path fill="none" stroke="#000000" stroke-linecap="round" stroke-linejoin="round" stroke-width="2" d="M42.8076,57.9758 C40.6563,58.6415,38.37,59,36,59c-7.9391,0-14.9387-4.0224-19.072-10.1405"/>
    <path fill="none" stroke="#000000" stroke-linecap="round" stroke-linejoin="round" stroke-width="2" d="M53.7479,21.3699 C57.029,25.3456,59,30.4426,59,36c0,3.6035-0.8287,7.0135-2.3059,10.0497"/>
    <path fill="none" stroke="#000000" stroke-linecap="round" stroke-linejoin="round" stroke-width="2" d="M14.7323,27.2273 C18.1806,18.8766,26.404,13,36,13"/>
    <path fill="none" stroke="#000000" stroke-linecap="round" stroke-miterlimit="10" stroke-width="2" d="M31.6941,32.4036 c-1.0598-2.3854-3.8527-3.46-6.238-2.4002c-1.0697,0.4752-1.9249,1.3305-2.4002,2.4002"/>
    <path fill="none" stroke="#000000" stroke-linecap="round" stroke-miterlimit="10" stroke-width="2" d="M48.9441,32.4036 c-1.0598-2.3854-3.8527-3.46-6.238-2.4002c-1.0697,0.4752-1.9249,1.3305-2.4002,2.4002"/>
  </g></svg>
</g>
<g class="f2">
  <svg x="10" y="10" width="80" height="80" viewBox="0 0 72 72"><g id="color">
    <circle cx="36" cy="36" r="24" fill="#FCEA2B"/>
    <path fill="#FFA7C0" d="M11.3186,34.66c-0.0843,0.1747-0.2943,0.2481-0.4691,0.1637c-0.0715-0.0345-0.1292-0.0922-0.1637-0.1637 c-0.9703-2.0141-3.3896-2.8602-5.4036-1.8899c-2.0141,0.9703-2.8602,3.3896-1.8899,5.4036 c0.1063,0.2206,0.2323,0.4311,0.3766,0.6289l7.2333,9.2748l7.1911-9.218l0.232-0.3422c1.1619-1.91,0.5554-4.4002-1.3545-5.562 s-4.4002-0.5554-5.562,1.3545C11.4396,34.4233,11.3762,34.5402,11.3186,34.66z"/>
    <path fill="#FFA7C0" d="M48.3186,7.66c-0.0843,0.1747-0.2943,0.2481-0.4691,0.1637C47.778,7.7892,47.7203,7.7315,47.6858,7.66 c-0.9703-2.0141-3.3896-2.8602-5.4036-1.8899s-2.8602,3.3896-1.8899,5.4036c0.1063,0.2206,0.2323,0.4311,0.3766,0.6289 l7.2333,9.2748l7.1911-9.218l0.232-0.3422c1.1619-1.91,0.5554-4.4002-1.3545-5.562c-1.91-1.1619-4.4002-0.5554-5.562,1.3545 C48.4396,7.4233,48.3762,7.5402,48.3186,7.66z"/>
    <path fill="#FFA7C0" d="M56.3186,52.66c-0.0843,0.1747-0.2943,0.2481-0.4691,0.1637c-0.0715-0.0345-0.1292-0.0922-0.1637-0.1637 c-0.9703-2.0141-3.3896-2.8602-5.4036-1.8899c-2.0141,0.9703-2.8602,3.3896-1.8899,5.4036 c0.1063,0.2206,0.2323,0.4311,0.3766,0.6289l7.2333,9.2748l7.1911-9.218l0.232-0.3422c1.1619-1.91,0.5554-4.4002-1.3545-5.562 c-1.91-1.1619-4.4002-0.5554-5.562,1.3545C56.4396,52.4233,56.3762,52.5402,56.3186,52.66z"/>
  </g>
  <g id="line">
    <path fill="none" stroke="#000000" stroke-linecap="round" stroke-linejoin="round" stroke-width="2" d="M45.815,44.8043 c-5.6998,4.6988-13.9302,4.6988-19.63,0"/>
    <path fill="none" stroke="#000000" stroke-linecap="round" stroke-linejoin="round" stroke-width="2" d="M52.04,50.3656 c-2.2368,0.0001-4.0499,1.8135-4.0498,4.0502c0,0.7409,0.2033,1.4677,0.5878,2.1011l0.232,0.3422l7.1911,9.218l7.2333-9.2748 c1.3204-1.8042,0.9281-4.3372-0.8761-5.6576c-1.8042-1.3204-4.3372-0.9281-5.6576,0.8761 c-0.147,0.2008-0.2751,0.4148-0.3828,0.6392c-0.0843,0.1747-0.2943,0.2481-0.4691,0.1637 c-0.0715-0.0345-0.1292-0.0922-0.1637-0.1637C55.0167,51.2541,53.5967,50.3603,52.04,50.3656z"/>
    <path fill="none" stroke="#000000" stroke-linecap="round" stroke-linejoin="round" stroke-width="2" d="M7.04,32.3656 c-2.2368,0.0001-4.0499,1.8135-4.0498,4.0502c0,0.7409,0.2033,1.4677,0.5878,2.1011l0.232,0.3422l7.1911,9.218l7.2333-9.2748 c1.3204-1.8042,0.9281-4.3372-0.8761-5.6576s-4.3372-0.9281-5.6576,0.8761c-0.147,0.2008-0.2751,0.4148-0.3828,0.6391 c-0.0843,0.1747-0.2943,0.2481-0.4691,0.1637c-0.0715-0.0345-0.1292-0.0922-0.1637-0.1637 C10.0167,33.2541,8.5967,32.3603,7.04,32.3656z"/>
    <path fill="none" stroke="#000000" stroke-linecap="round" stroke-linejoin="round" stroke-width="2" d="M44.04,5.3656 c-2.2368,0.0001-4.0499,1.8135-4.0498,4.0502c0,0.7409,0.2033,1.4677,0.5878,2.1011l0.232,0.3422l7.1911,9.218l7.2333-9.2748 c1.3204-1.8042,0.9281-4.3372-0.8761-5.6576c-1.8042-1.3204-4.3372-0.9281-5.6576,0.8761 c-0.147,0.2008-0.2751,0.4148-0.3828,0.6392c-0.0843,0.1747-0.2943,0.2481-0.4691,0.1637 c-0.0715-0.0345-0.1292-0.0922-0.1637-0.1637C47.0167,6.2541,45.5967,5.3603,44.04,5.3656z"/>
    <path fill="none" stroke="#000000" stroke-linecap="round" stroke-linejoin="round" stroke-width="2" d="M42.8076,57.9758 C40.6563,58.6415,38.37,59,36,59c-7.9391,0-14.9387-4.0224-19.072-10.1405"/>
    <path fill="none" stroke="#000000" stroke-linecap="round" stroke-linejoin="round" stroke-width="2" d="M53.7479,21.3699 C57.029,25.3456,59,30.4426,59,36c0,3.6035-0.8287,7.0135-2.3059,10.0497"/>
    <path fill="none" stroke="#000000" stroke-linecap="round" stroke-linejoin="round" stroke-width="2" d="M14.7323,27.2273 C18.1806,18.8766,26.404,13,36,13"/>
    <path fill="none" stroke="#000000" stroke-linecap="round" stroke-miterlimit="10" stroke-width="2" d="M31.6941,32.4036 c-1.0598-2.3854-3.8527-3.46-6.238-2.4002c-1.0697,0.4752-1.9249,1.3305-2.4002,2.4002"/>
    <path fill="none" stroke="#000000" stroke-linecap="round" stroke-miterlimit="10" stroke-width="2" d="M48.9441,32.4036 c-1.0598-2.3854-3.8527-3.46-6.238-2.4002c-1.0697,0.4752-1.9249,1.3305-2.4002,2.4002"/>
  </g></svg>
  <svg x="110" y="10" width="80" height="80" viewBox="0 0 72 72"><g id="color">
    <path fill="#FCEA2B" stroke="none" d="M25.7052,40.1067c0.1453,0.8051,0.9245,1.4619,1.9675,1.6589l11.9059,2.2495 c0.5576,0.1054,0.564,0.7031,0.0064,0.8085c-3.1597,0.597-9.0176,1.7037-11.9188,2.2519c-1.043,0.1971-1.8155,0.8529-1.9608,1.6579 l-3.1563,17.4924c-0.0868,0.4811-1.0073,0.4811-1.0942,0l-3.1563-17.4921c-0.1453-0.8051-0.9179-1.461-1.9611-1.6581 c-2.9014-0.5479-8.7594-1.6546-11.9193-2.2516c-0.5576-0.1053-0.5576-0.7019,0-0.8072c3.1601-0.597,9.0184-1.7039,11.9197-2.2523 c1.0429-0.1971,1.172-1.1419,1.3173-1.9469l2.6528-14.0921c0.0868-0.4811,2.1538-3.594,2.2406-3.1128 C23.5311,28.057,25.5109,39.0291,25.7052,40.1067z"/>
    <path fill="#F1B31C" stroke="none" d="M22.6499,66.2258l1.5818-15.4034C21.4322,46.2039,20.3623,41.4122,19.0589,38l-1.3554,2.1201 c-0.1349,0.8046-0.8519,1.46-1.8203,1.6571c-2.6937,0.548-8.133,1.6544-11.0668,2.2512c-0.5177,0.1053-0.5177,0.7015,0,0.8068 c2.9338,0.5967,8.3727,1.7028,11.0664,2.2504c0.9685,0.197,2.6859,0.8525,2.8208,1.6572l2.9305,17.4831 C21.7147,66.7068,22.5694,66.7068,22.6499,66.2258z"/>
    <path fill="#FCEA2B" stroke="none" d="M46.676,19.3048c0.1049,0.5815,0.6677,1.0558,1.421,1.1981l8.5987,1.6246 c0.4027,0.0761,0.4073,0.5078,0.0046,0.5839c-2.282,0.4312-6.5127,1.2304-8.6081,1.6263c-0.7533,0.1423-1.3112,0.616-1.4161,1.1974 l-2.2795,12.6334c-0.0627,0.3475-0.7275,0.3475-0.7902,0l-2.2795-12.6332c-0.1049-0.5815-0.6629-1.0552-1.4163-1.1975 c-2.0955-0.3957-6.3263-1.195-8.6084-1.6262c-0.4027-0.0761-0.4027-0.5069,0-0.583c2.2823-0.4312,6.5133-1.2306,8.6086-1.6267 c0.7532-0.1423,0.8465-0.8247,0.9514-1.4061l1.7931-10.1776c0.0627-0.3475,1.6784-2.5957,1.741-2.2481 C45.1058,10.6022,46.5356,18.5265,46.676,19.3048z"/>
    <path fill="#F1B31C" stroke="none" d="M44.7472,38.1686l0.8646-11.1247c-2.0219-3.3355-3.5168-6.7963-4.4581-9.2606l-0.2567,1.5312 c-0.0974,0.5811-0.6153,1.0544-1.3147,1.1968c-1.9454,0.3958-5.8738,1.1948-7.9927,1.6259c-0.3739,0.076-0.3739,0.5066,0,0.5827 c2.1189,0.431,6.0469,1.2298,7.9924,1.6253c0.6995,0.1423,2.2176,0.6157,2.315,1.1969l2.1164,12.6266 C44.0717,38.516,44.689,38.516,44.7472,38.1686z"/>
    <path fill="#FCEA2B" stroke="none" d="M56.8824,48.9358c0.0862,0.4637,0.5487,0.8419,1.1677,0.9554l7.0663,1.2955 c0.3309,0.0607,0.3347,0.4049,0.0038,0.4656c-1.8753,0.3438-5.352,0.9812-7.074,1.2969c-0.619,0.1135-1.0775,0.4912-1.1637,0.9548 l-1.8733,10.0742c-0.0515,0.2771-0.5978,0.2771-0.6494,0l-1.8733-10.074c-0.0862-0.4637-0.5448-0.8414-1.1639-0.9549 c-1.722-0.3156-5.1988-0.9529-7.0743-1.2967c-0.3309-0.0607-0.3309-0.4042,0-0.4649c1.8755-0.3438,5.3525-0.9813,7.0745-1.2972 c0.619-0.1135,0.6956-0.6577,0.7818-1.1213l1.4736-8.1159c0.0515-0.2771,1.3793-2.0699,1.4308-1.7927 C55.592,41.9962,56.767,48.3151,56.8824,48.9358z"/>
    <path fill="#F1B31C" stroke="none" d="M55.2315,63.9782l1.0538-8.8711c-1.6123-2.6598-2.8044-5.4195-3.555-7.3846l-0.2047,1.221 c-0.0777,0.4634-0.4906,0.8408-1.0484,0.9543c-1.5513,0.3156-4.6839,0.9528-6.3736,1.2965c-0.2982,0.0606-0.2982,0.404,0,0.4646 c1.6896,0.3437,4.822,0.9807,6.3733,1.2961c0.5578,0.1134,0.9709,0.491,1.0486,0.9544l2.1208,10.0688 C54.6929,64.2552,55.1851,64.2552,55.2315,63.9782z"/>
  </g>
  <g id="hair"/>
  <g id="skin"/>
  <g id="skin-shadow"/>
  <g id="line">
    <path fill="none" stroke="#000000" stroke-linecap="round" stroke-linejoin="round" stroke-miterlimit="10" stroke-width="2" d="M20,32l2.1418-11.1605l0.6996,4.1763c0.1122,0.6679,2.3298,13.9055,2.3298,13.9055c0.2615,1.5604,1.6435,2.8154,3.5205,3.1974 L40,44.4198l-11.3161,2.3026c-1.8724,0.381-3.2513,1.6356-3.5127,3.1963L22.1422,68l-3.029-18.0806 c-0.2615-1.5607-1.6405-2.8153-3.5131-3.1964L4.2836,44.4205l11.3171-2.3031C17.4727,41.7362,18.7387,39.5604,19,38"/>
    <path fill="none" stroke="#000000" stroke-linecap="round" stroke-linejoin="round" stroke-miterlimit="10" stroke-width="2" d="M42.5556,13.4499l1.5469-8.0604l0.5052,3.0162c0.081,0.4824,1.6827,10.0429,1.6827,10.0429 c0.1889,1.1269,1.1869,2.0334,2.5426,2.3092L57,22.4198l-8.1728,1.663c-1.3523,0.2752-2.3482,1.1812-2.5369,2.3084l-2.1876,13.0587 l-2.1876-13.0582c-0.1889-1.1272-1.1848-2.0333-2.5372-2.3085l-8.173-1.6629l8.1735-1.6634 c1.352-0.2753,2.2663-1.8467,2.455-2.9736"/>
    <path fill="none" stroke="#000000" stroke-linecap="round" stroke-linejoin="round" stroke-miterlimit="10" stroke-width="2" d="M53.8482,44.267l1.2335-6.4275l0.4029,2.4052c0.0646,0.3847,1.3418,8.0084,1.3418,8.0084 c0.1506,0.8986,0.9465,1.6215,2.0275,1.8414l6.5126,1.3253l-6.5171,1.3261c-1.0783,0.2194-1.8725,0.9419-2.023,1.8408L55.0819,65 l-1.7445-10.4129c-0.1506-0.8988-0.9448-1.6214-2.0232-1.8409l-6.5174-1.326l6.5177-1.3264 c1.0781-0.2195,1.8072-1.4726,1.9577-2.3712"/>
  </g></svg>
  <svg x="210" y="10" width="80" height="80" viewBox="0 0 72 72"><g id="color">
    <path fill="#A57939" stroke="none" stroke-linecap="round" stroke-linejoin="round" stroke-miterlimit="10" stroke-width="2" d="M59,36c-0.25-0.75-0.71-2.1-2-3c-1.56-1.08-3.63-1.01-4-1c-0.76,0.03-1.18,0.16-2,0c-0.58-0.12-1.53-0.3-2-1 c-0.4-0.59-0.15-1.08,0-3c0.12-1.51,0.17-2.27,0-3c-0.37-1.58-1.49-2.56-2-3c-1.05-0.92-2.38-1.56-5-2c-1.82-0.31-4.75-0.6-9,0 c-2.15,0.3-5.46,0.87-8,1.72c-1.77,0.58-3.74,1.41-6,3c-0.02,0.01-0.04,0.02-0.05,0.03c-3.44,2.24-5.39,6.2-5.22,10.31 C14.64,57.13,54.56,59.91,59,41C59.09,40.4,59.79,38.35,59,36z M38.21,30.12c-1.53,0-2.76-1.24-2.76-2.76 c0-1.53,1.23-2.76,2.76-2.76h2.71c1.52,0,2.76,1.23,2.76,2.76c0,0.76-0.31,1.45-0.81,1.95s-1.19,0.81-1.95,0.81H38.21z"/>
    <circle cx="20" cy="33" r="3" fill="#61B2E4" stroke="none" stroke-miterlimit="10" stroke-width="2"/>
    <circle cx="25" cy="42" r="3" fill="#5C9E31" stroke="none" stroke-linecap="round" stroke-linejoin="round" stroke-miterlimit="10" stroke-width="2"/>
    <circle cx="35" cy="45" r="3" fill="#FCEA2B" stroke="none" stroke-miterlimit="10" stroke-width="2"/>
    <circle cx="45" cy="44" r="3" fill="#D22F27" stroke="none" stroke-miterlimit="10" stroke-width="2"/>
  </g>
  <g id="hair"/>
  <g id="skin"/>
  <g id="skin-shadow"/>
  <g id="line">
    <path fill="none" stroke="#000000" stroke-linecap="round" stroke-linejoin="round" stroke-miterlimit="10" stroke-width="2" d="M59,36c-0.25-0.75-0.71-2.1-2-3c-1.56-1.08-3.63-1.01-4-1c-0.76,0.03-1.18,0.16-2,0c-0.58-0.12-1.53-0.3-2-1 c-0.4-0.59-0.15-1.08,0-3c0.12-1.51,0.17-2.27,0-3c-0.37-1.58-1.49-2.56-2-3c-1.05-0.92-2.38-1.56-5-2c-1.82-0.31-4.75-0.6-9,0 c-2.15,0.3-5.46,0.87-8,1.72c-1.77,0.58-3.74,1.41-6,3c-0.02,0.01-0.04,0.02-0.05,0.03c-3.44,2.24-5.39,6.2-5.22,10.31 C14.64,57.13,54.56,59.91,59,41C59.09,40.4,59.79,38.35,59,36z M38.21,30.12c-1.53,0-2.76-1.24-2.76-2.76 c0-1.53,1.23-2.76,2.76-2.76h2.71c1.52,0,2.76,1.23,2.76,2.76c0,0.76-0.31,1.45-0.81,1.95s-1.19,0.81-1.95,0.81H38.21z"/>
    <circle cx="20" cy="33" r="3" fill="none" stroke="#000000" stroke-miterlimit="10" stroke-width="2"/>
    <circle cx="25" cy="42" r="3" fill="none" stroke="#000000" stroke-linecap="round" stroke-linejoin="round" stroke-miterlimit="10" stroke-width="2"/>
    <circle cx="35" cy="45" r="3" fill="none" stroke="#000000" stroke-miterlimit="10" stroke-width="2"/>
    <circle cx="45" cy="44" r="3" fill="none" stroke="#000000" stroke-miterlimit="10" stroke-width="2"/>
  </g></svg>
</g>
</svg>